<svg id="Logo" xmlns="http://www.w3.org/2000/svg" width="141.333" height="32" viewBox="0 0 141.333 32">
  <g id="mark">
    <g id="wordmark" transform="translate(39.777 7.701)">
      <path id="Path_19" data-name="Path 19" d="M59.666,25.226l1.861-2.253a5.234,5.234,0,0,0,4.289,2.253c1.334,0,2.319-.7,2.319-1.727,0-.657-.481-1.225-1.465-1.685-.219-.109-.744-.306-1.6-.635a16.829,16.829,0,0,1-1.9-.874,4.487,4.487,0,0,1-2.56-4.026,4.262,4.262,0,0,1,1.531-3.369,5.856,5.856,0,0,1,3.983-1.358,7.171,7.171,0,0,1,5.317,2.187L69.71,16.1a5.1,5.1,0,0,0-3.545-1.509c-1.291,0-2.078.611-2.078,1.552,0,.635.437,1.161,1.313,1.6l1.6.7q1.345.558,1.969.853a4.3,4.3,0,0,1,2.757,4.026,4.419,4.419,0,0,1-1.641,3.545,6.43,6.43,0,0,1-4.289,1.379A7.276,7.276,0,0,1,59.666,25.226Z" transform="translate(-59.666 -11.551)" fill="#d95762"/>
      <path id="Path_20" data-name="Path 20" d="M90.683,19.668a6.292,6.292,0,0,1,1.662,4.443,6.31,6.31,0,0,1-1.685,4.443,5.5,5.5,0,0,1-4.2,1.815,4.891,4.891,0,0,1-3.741-1.663v6.279H79.632V18.159H82.7v1.467a4.8,4.8,0,0,1,3.785-1.773A5.5,5.5,0,0,1,90.683,19.668Zm-2.364,6.893a3.668,3.668,0,0,0,0-4.857,3.358,3.358,0,0,0-4.749,0,3.672,3.672,0,0,0,0,4.857,3.352,3.352,0,0,0,4.749,0Z" transform="translate(-66.321 -13.652)" fill="#d95762"/>
      <path id="Path_21" data-name="Path 21" d="M109.447,18.159h2.931V30.084h-2.931V28.706a4.965,4.965,0,0,1-3.808,1.663,5.536,5.536,0,0,1-4.245-1.794,6.377,6.377,0,0,1-1.663-4.507,6.161,6.161,0,0,1,1.685-4.443,5.578,5.578,0,0,1,4.223-1.773,4.942,4.942,0,0,1,3.808,1.729Zm-.919,3.523a3.354,3.354,0,0,0-4.793,0,3.5,3.5,0,0,0-.918,2.429,3.435,3.435,0,0,0,.941,2.45,3.327,3.327,0,0,0,4.77,0,3.574,3.574,0,0,0,0-4.879Z" transform="translate(-73.021 -13.652)" fill="#d95762"/>
      <path id="Path_22" data-name="Path 22" d="M121.569,30.074V18.148h2.954v1.6a3.521,3.521,0,0,1,3.283-1.924,4.2,4.2,0,0,1,1.444.263l-.263,2.953a5.028,5.028,0,0,0-1.423-.239c-1.75,0-2.91,1.137-2.91,3.609v5.667Z" transform="translate(-80.3 -13.641)" fill="#d95762"/>
      <path id="Path_23" data-name="Path 23" d="M144.618,25.206h-8.95a3.207,3.207,0,0,0,3.479,2.538A7.4,7.4,0,0,0,143,26.54l1.225,2.166a8.624,8.624,0,0,1-5.207,1.642,5.983,5.983,0,0,1-6.477-6.237,6.12,6.12,0,0,1,1.729-4.485,6.527,6.527,0,0,1,8.774-.154,5.767,5.767,0,0,1,1.685,4.376A10.31,10.31,0,0,1,144.618,25.206Zm-8.95-2.3h6.061a2.866,2.866,0,0,0-2.976-2.495A3.055,3.055,0,0,0,135.668,22.907Z" transform="translate(-83.957 -13.652)" fill="#d95762"/>
      <path id="Path_24" data-name="Path 24" d="M159.265,11.945a5.506,5.506,0,0,1,4.267,1.553,5.346,5.346,0,0,1,1.445,3.787,5.16,5.16,0,0,1-1.488,3.763,6.068,6.068,0,0,1-4.465,1.488h-2.494v5.58h-3.239V11.945Zm-.13,7.659a2.3,2.3,0,0,0,2.537-2.363,2.223,2.223,0,0,0-2.363-2.3h-2.779V19.6Z" transform="translate(-90.875 -11.682)" fill="#d95762"/>
      <path id="Path_25" data-name="Path 25" d="M180.807,18.159h2.931V30.084h-2.931V28.706A4.962,4.962,0,0,1,177,30.369a5.537,5.537,0,0,1-4.245-1.794,6.377,6.377,0,0,1-1.663-4.507,6.159,6.159,0,0,1,1.686-4.443A5.576,5.576,0,0,1,177,17.853a4.941,4.941,0,0,1,3.807,1.729Zm-.919,3.523a3.353,3.353,0,0,0-4.792,0,3.5,3.5,0,0,0-.919,2.429,3.435,3.435,0,0,0,.941,2.45,3.327,3.327,0,0,0,4.77,0,3.574,3.574,0,0,0,0-4.879Z" transform="translate(-96.808 -13.652)" fill="#d95762"/>
      <path id="Path_26" data-name="Path 26" d="M203.982,19.668a6.292,6.292,0,0,1,1.662,4.443,6.31,6.31,0,0,1-1.685,4.443,5.5,5.5,0,0,1-4.2,1.815,4.891,4.891,0,0,1-3.741-1.663v6.279h-3.085V18.159h3.064v1.467a4.8,4.8,0,0,1,3.785-1.773A5.5,5.5,0,0,1,203.982,19.668Zm-2.364,6.893a3.668,3.668,0,0,0,0-4.857,3.358,3.358,0,0,0-4.749,0,3.672,3.672,0,0,0,0,4.857,3.352,3.352,0,0,0,4.749,0Z" transform="translate(-104.088 -13.652)" fill="#d95762"/>
    </g>
    <path id="icon" d="M29.739,20.42l-1.861-1.645a2.892,2.892,0,0,1-.978-2.168V15.392a2.891,2.891,0,0,1,.977-2.167l1.862-1.645a1.085,1.085,0,0,0,.3-1.191A15.965,15.965,0,0,0,27.4,5.827a1.082,1.082,0,0,0-1.18-.335l-2.355.789A2.893,2.893,0,0,1,21.5,6.044L20.45,5.436a2.892,2.892,0,0,1-1.388-1.929l-.493-2.433a1.083,1.083,0,0,0-.881-.855,15.986,15.986,0,0,0-5.27,0,1.083,1.083,0,0,0-.881.855l-.493,2.433A2.892,2.892,0,0,1,9.657,5.436l-1.051.608a2.894,2.894,0,0,1-2.367.237L3.885,5.492A1.083,1.083,0,0,0,2.7,5.827,15.979,15.979,0,0,0,.069,10.389a1.084,1.084,0,0,0,.3,1.191l1.861,1.645a2.89,2.89,0,0,1,.978,2.167v1.215a2.9,2.9,0,0,1-.978,2.168L.367,20.42a1.083,1.083,0,0,0-.3,1.191A15.992,15.992,0,0,0,2.7,26.172a1.083,1.083,0,0,0,1.181.335l2.354-.789a2.892,2.892,0,0,1,2.367.237l1.053.609a2.892,2.892,0,0,1,1.388,1.93l.493,2.433a1.083,1.083,0,0,0,.881.855,15.982,15.982,0,0,0,5.269,0,1.083,1.083,0,0,0,.881-.855l.493-2.433a2.893,2.893,0,0,1,1.387-1.93l1.053-.609a2.894,2.894,0,0,1,2.367-.237l2.354.789a1.082,1.082,0,0,0,1.18-.335,15.978,15.978,0,0,0,2.635-4.561A1.083,1.083,0,0,0,29.739,20.42Zm-15.514-8,7.365,6.517a2.134,2.134,0,0,1-1.408,3.731H9.981A2.166,2.166,0,0,1,7.8,20.611,2.133,2.133,0,0,1,9.931,18.4h3.511a.192.192,0,0,1,.08.018l1.984.947a.044.044,0,0,0,.049-.073L14.546,18.4h0L8.517,13.064A2.123,2.123,0,0,1,9.665,9.359a.908.908,0,0,1,.106-.017l.061,0c.033,0,.061-.006.1-.006H20.125a2.167,2.167,0,0,1,2.183,2.055A2.133,2.133,0,0,1,20.177,13.6H16.7a.579.579,0,0,1-.287-.076L14.3,12.316A.063.063,0,0,0,14.225,12.418Z" transform="translate(0 0)" fill="#d95762"/>
  </g>
</svg>
