<svg xmlns="http://www.w3.org/2000/svg" xmlns:cc="http://creativecommons.org/ns#" xmlns:dc="http://purl.org/dc/elements/1.1/" xmlns:rdf="http://www.w3.org/1999/02/22-rdf-syntax-ns#" width="51.39mm" height="34.448mm" version="1.1" viewBox="0 0 51.39 34.448"><metadata><rdf:rdf><cc:work rdf:about=""><dc:format>image/svg+xml</dc:format><dc:type rdf:resource="http://purl.org/dc/dcmitype/StillImage"></dc:type><dc:title></dc:title></cc:work></rdf:rdf></metadata><g transform="translate(-39.317 -73.401)"><g transform="matrix(.35278 0 0 -.35278 7.3377 206.95)"><g transform="translate(90.65 293.24)"><path d="m0 0h2.129v-10.177h6.369v-1.939h-8.498z" fill="#42424a"></path></g><path d="m101.48 293.24h2.129v-12.116h-2.129z" fill="#42424a"></path><g transform="translate(105.81 293.24)"><path d="m0 0h2.354l3.652-9.312 3.635 9.312h2.302l-5.037-12.202h-1.869z" fill="#42424a"></path></g><path d="m119.95 293.24h2.129v-12.116h-2.129z" fill="#42424a"></path><g transform="translate(125.32 293.24)"><path d="m0 0h1.973l6.491-8.377v8.377h2.094v-12.116h-1.783l-6.681 8.62v-8.62h-2.094z" fill="#42424a"></path></g><g transform="translate(138.46 287.14)"><path d="m0 0v0.035c0 3.392 2.596 6.265 6.248 6.265 2.112 0 3.41-0.588 4.656-1.644l-1.35-1.61c-0.935 0.796-1.852 1.298-3.392 1.298-2.233 0-3.929-1.955-3.929-4.275v-0.034c0-2.493 1.644-4.328 4.119-4.328 1.142 0 2.181 0.364 2.925 0.918v2.267h-3.098v1.852h5.158v-5.088c-1.194-1.021-2.908-1.887-5.054-1.887-3.791 0-6.283 2.7-6.283 6.231" fill="#42424a"></path></g><path d="m157.88 293.24h2.129v-12.116h-2.129z" fill="#42424a"></path><g transform="translate(163.24 293.24)"><path d="m0 0h1.973l6.491-8.377v8.377h2.094v-12.116h-1.783l-6.681 8.62v-8.62h-2.094z" fill="#42424a"></path></g><g transform="translate(181.3 282.89)"><path d="m0 0 1.281 1.523c1.16-1.004 2.319-1.575 3.825-1.575 1.315 0 2.146 0.606 2.146 1.523v0.035c0 0.865-0.484 1.333-2.735 1.852-2.578 0.623-4.032 1.384-4.032 3.617v0.035c0 2.077 1.73 3.513 4.136 3.513 1.766 0 3.168-0.536 4.397-1.523l-1.143-1.609c-1.09 0.813-2.18 1.246-3.288 1.246-1.246 0-1.973-0.641-1.973-1.437v-0.034c0-0.935 0.554-1.351 2.873-1.904 2.561-0.623 3.894-1.541 3.894-3.548v-0.035c0-2.268-1.783-3.618-4.327-3.618-1.852 0-3.6 0.641-5.054 1.939" fill="#42424a"></path></g><g transform="translate(195.9 291.26)"><path d="m0 0h-3.842v1.973h9.831v-1.973h-3.843v-10.143h-2.146z" fill="#42424a"></path></g><g transform="translate(207.71 285.9)"><path d="m0 0-4.812 7.339h2.51l3.392-5.366 3.427 5.366h2.441l-4.812-7.287v-4.829h-2.146z" fill="#42424a"></path></g><g transform="translate(216.54 293.24)"><path d="m0 0h2.129v-10.177h6.369v-1.939h-8.498z" fill="#42424a"></path></g><g transform="translate(227.25 293.24)"><path d="m0 0h8.983v-1.904h-6.854v-3.15h6.075v-1.904h-6.075v-3.254h6.941v-1.904h-9.07z" fill="#42424a"></path></g><g transform="translate(148.1 352.78)"><path d="m0 0c0-0.402-0.405-0.808-1.013-0.808h-13.579v-31.299c0-0.406-0.405-0.813-1.014-0.813h-11.451c-0.607 0-1.014 0.407-1.014 0.813v31.299h-13.576c-0.61 0-1.016 0.406-1.016 0.808v11.912c0 0.406 0.406 0.813 1.016 0.813h40.634c0.608 0 1.013-0.407 1.013-0.813z" fill="#42424a"></path></g><g transform="translate(157.57 357.31)"><path d="m0 0h4.668c0.26 0 0.472 0.21 0.472 0.473v20.25c0 0.262-0.212 0.472-0.472 0.472h-70.935c-0.261 0-0.471-0.21-0.471-0.472v-70.934c0-0.26 0.21-0.471 0.471-0.471h70.935c0.26 0 0.472 0.211 0.472 0.471v20.016c0 0.261-0.212 0.472-0.472 0.472h-4.668c-0.26 0-0.471-0.211-0.471-0.472v-14.877h-60.657v60.655h60.657v-15.11c0-0.263 0.211-0.473 0.471-0.473" fill="#fcd405"></path></g><g transform="translate(236.15 317.56)"><path d="m0 0-8.812 8.915c-0.095 0.096-0.224 0.15-0.363 0.151-0.135 0-0.266-0.053-0.361-0.146-4.214-4.219-10.083-6.638-16.104-6.638-6.089 0-11.804 2.361-16.091 6.648-4.288 4.288-6.648 10.002-6.648 16.091 0 6.09 2.36 11.805 6.648 16.091 4.288 4.288 10.003 6.649 16.091 6.649 6.015 0 11.887-2.419 16.106-6.638 0.192-0.194 0.527-0.193 0.72 2e-3l8.731 8.732c0.197 0.197 0.199 0.52 3e-3 0.72-6.618 6.725-15.501 10.428-25.01 10.428-9.74 0-18.811-3.486-25.541-9.816-7.029-6.606-10.899-15.9-10.899-26.168 0-10.139 3.885-19.403 10.939-26.082 6.8-6.439 15.886-9.985 25.583-9.985 9.468 0 18.348 3.667 25.006 10.325 0.201 0.203 0.202 0.519 2e-3 0.721" fill="#42424a"></path></g><g transform="translate(210.48 351.91)"><path d="m0 0c-5.1 0-9.337-4.151-9.337-9.339 0-5.102 4.237-9.338 9.337-9.338 5.19 0 9.338 4.236 9.338 9.338 0 5.188-4.148 9.339-9.338 9.339" fill="#fcd405"></path></g><g transform="translate(161.46 347.33)"><path d="m0 0c0 0.887-0.809 1.669-1.93 1.669-0.965 0-1.539-0.6-1.539-1.278 0-0.782 0.522-1.278 1.2-2.034l0.574-0.574s1.695 0.757 1.695 2.217m-2.087-10.927c2.034 0 2.817 1.33 2.817 1.33l-3.416 3.625s-1.852-0.626-1.852-2.738c0-1.252 1.069-2.217 2.451-2.217m-2.607 6.937v0.078l-0.522 0.548c-1.043 1.095-1.721 2.217-1.721 3.729 0 1.982 1.721 4.225 5.059 4.225 2.973 0 5.216-1.93 5.216-4.355 0-2.869-2.843-4.408-2.843-4.616l2.347-2.399c0.339 0.547 0.678 1.382 0.861 2.008 0.156 0.547 0.313 0.965 1.017 0.704l1.904-0.678c0.73-0.261 0.443-0.887 0.339-1.2-0.626-1.825-1.643-3.208-1.643-3.26l2.216-2.06c0.34-0.313 0.6-0.548-0.052-1.2l-1.46-1.486c-0.313-0.287-0.757-0.339-1.174 0.078l-1.695 1.695s-1.773-2.008-5.685-2.008c-3.338 0-5.737 2.243-5.737 4.955 0 3.756 3.573 5.242 3.573 5.242" fill="#42424a"></path></g></g></g></svg>